<mxfile host="app.diagrams.net" modified="2022-04-08T08:34:10.531Z" agent="5.0 (Windows NT 10.0; Win64; x64) AppleWebKit/537.36 (KHTML, like Gecko) Chrome/99.0.4844.84 Safari/537.36" etag="Qzx02Bnr7vCFZ3owNplR" version="17.4.1" type="github">
  <diagram id="VKLz5uYqRT-E5h3lGva3" name="Page-1">
    <mxGraphModel dx="782" dy="380" grid="1" gridSize="10" guides="1" tooltips="1" connect="1" arrows="1" fold="1" page="1" pageScale="1" pageWidth="827" pageHeight="1169" math="0" shadow="0">
      <root>
        <mxCell id="0" />
        <mxCell id="1" parent="0" />
        <mxCell id="N9_Ki6A4EYx4unU-PyfW-1" value="1" style="ellipse;whiteSpace=wrap;html=1;aspect=fixed;" vertex="1" parent="1">
          <mxGeometry x="360" y="40" width="40" height="40" as="geometry" />
        </mxCell>
        <mxCell id="N9_Ki6A4EYx4unU-PyfW-3" value="&#xa;&#xa;&lt;span style=&quot;color: rgb(0, 0, 0); font-family: helvetica; font-size: 12px; font-style: normal; font-weight: 400; letter-spacing: normal; text-align: center; text-indent: 0px; text-transform: none; word-spacing: 0px; background-color: rgb(248, 249, 250); display: inline; float: none;&quot;&gt;None&lt;/span&gt;&#xa;&#xa;" style="ellipse;whiteSpace=wrap;html=1;aspect=fixed;" vertex="1" parent="1">
          <mxGeometry x="280" y="120" width="40" height="40" as="geometry" />
        </mxCell>
        <mxCell id="N9_Ki6A4EYx4unU-PyfW-4" value="&#xa;&#xa;&lt;span style=&quot;color: rgb(0, 0, 0); font-family: helvetica; font-size: 12px; font-style: normal; font-weight: 400; letter-spacing: normal; text-align: center; text-indent: 0px; text-transform: none; word-spacing: 0px; background-color: rgb(248, 249, 250); display: inline; float: none;&quot;&gt;None&lt;/span&gt;&#xa;&#xa;" style="ellipse;whiteSpace=wrap;html=1;aspect=fixed;" vertex="1" parent="1">
          <mxGeometry x="440" y="120" width="40" height="40" as="geometry" />
        </mxCell>
        <mxCell id="N9_Ki6A4EYx4unU-PyfW-5" value="&#xa;&#xa;&lt;span style=&quot;color: rgb(0, 0, 0); font-family: helvetica; font-size: 12px; font-style: normal; font-weight: 400; letter-spacing: normal; text-align: center; text-indent: 0px; text-transform: none; word-spacing: 0px; background-color: rgb(248, 249, 250); display: inline; float: none;&quot;&gt;None&lt;/span&gt;&#xa;&#xa;" style="ellipse;whiteSpace=wrap;html=1;aspect=fixed;" vertex="1" parent="1">
          <mxGeometry x="240" y="200" width="40" height="40" as="geometry" />
        </mxCell>
        <mxCell id="N9_Ki6A4EYx4unU-PyfW-6" value="1" style="ellipse;whiteSpace=wrap;html=1;aspect=fixed;" vertex="1" parent="1">
          <mxGeometry x="320" y="200" width="40" height="40" as="geometry" />
        </mxCell>
        <mxCell id="N9_Ki6A4EYx4unU-PyfW-7" value="&#xa;&#xa;&lt;span style=&quot;color: rgb(0, 0, 0); font-family: helvetica; font-size: 12px; font-style: normal; font-weight: 400; letter-spacing: normal; text-align: center; text-indent: 0px; text-transform: none; word-spacing: 0px; background-color: rgb(248, 249, 250); display: inline; float: none;&quot;&gt;None&lt;/span&gt;&#xa;&#xa;" style="ellipse;whiteSpace=wrap;html=1;aspect=fixed;" vertex="1" parent="1">
          <mxGeometry x="280" y="280" width="40" height="40" as="geometry" />
        </mxCell>
        <mxCell id="N9_Ki6A4EYx4unU-PyfW-8" value="0" style="ellipse;whiteSpace=wrap;html=1;aspect=fixed;" vertex="1" parent="1">
          <mxGeometry x="200" y="280" width="40" height="40" as="geometry" />
        </mxCell>
        <mxCell id="N9_Ki6A4EYx4unU-PyfW-9" value="0" style="ellipse;whiteSpace=wrap;html=1;aspect=fixed;" vertex="1" parent="1">
          <mxGeometry x="480" y="200" width="40" height="40" as="geometry" />
        </mxCell>
        <mxCell id="N9_Ki6A4EYx4unU-PyfW-10" value="1" style="ellipse;whiteSpace=wrap;html=1;aspect=fixed;" vertex="1" parent="1">
          <mxGeometry x="250" y="360" width="40" height="40" as="geometry" />
        </mxCell>
        <mxCell id="N9_Ki6A4EYx4unU-PyfW-11" value="0" style="ellipse;whiteSpace=wrap;html=1;aspect=fixed;" vertex="1" parent="1">
          <mxGeometry x="320" y="360" width="40" height="40" as="geometry" />
        </mxCell>
        <mxCell id="N9_Ki6A4EYx4unU-PyfW-12" value="" style="endArrow=none;html=1;rounded=0;entryX=1;entryY=1;entryDx=0;entryDy=0;" edge="1" parent="1" source="N9_Ki6A4EYx4unU-PyfW-4" target="N9_Ki6A4EYx4unU-PyfW-1">
          <mxGeometry width="50" height="50" relative="1" as="geometry">
            <mxPoint x="380" y="250" as="sourcePoint" />
            <mxPoint x="430" y="200" as="targetPoint" />
          </mxGeometry>
        </mxCell>
        <mxCell id="N9_Ki6A4EYx4unU-PyfW-13" value="" style="endArrow=none;html=1;rounded=0;exitX=1;exitY=0;exitDx=0;exitDy=0;" edge="1" parent="1" source="N9_Ki6A4EYx4unU-PyfW-3" target="N9_Ki6A4EYx4unU-PyfW-1">
          <mxGeometry width="50" height="50" relative="1" as="geometry">
            <mxPoint x="390" y="260" as="sourcePoint" />
            <mxPoint x="440" y="210" as="targetPoint" />
          </mxGeometry>
        </mxCell>
        <mxCell id="N9_Ki6A4EYx4unU-PyfW-14" value="" style="endArrow=none;html=1;rounded=0;entryX=1;entryY=1;entryDx=0;entryDy=0;exitX=0.5;exitY=0;exitDx=0;exitDy=0;" edge="1" parent="1" source="N9_Ki6A4EYx4unU-PyfW-9" target="N9_Ki6A4EYx4unU-PyfW-4">
          <mxGeometry width="50" height="50" relative="1" as="geometry">
            <mxPoint x="519.9978643762689" y="199.99786437626892" as="sourcePoint" />
            <mxPoint x="468.28213562373105" y="148.28213562373105" as="targetPoint" />
          </mxGeometry>
        </mxCell>
        <mxCell id="N9_Ki6A4EYx4unU-PyfW-15" value="" style="endArrow=none;html=1;rounded=0;exitX=0;exitY=1;exitDx=0;exitDy=0;entryX=0.5;entryY=0;entryDx=0;entryDy=0;" edge="1" parent="1" source="N9_Ki6A4EYx4unU-PyfW-3" target="N9_Ki6A4EYx4unU-PyfW-5">
          <mxGeometry width="50" height="50" relative="1" as="geometry">
            <mxPoint x="324.14213562373106" y="135.85786437626894" as="sourcePoint" />
            <mxPoint x="375.85786437626894" y="84.14213562373106" as="targetPoint" />
          </mxGeometry>
        </mxCell>
        <mxCell id="N9_Ki6A4EYx4unU-PyfW-16" value="" style="endArrow=none;html=1;rounded=0;exitX=1;exitY=1;exitDx=0;exitDy=0;entryX=0.5;entryY=0;entryDx=0;entryDy=0;" edge="1" parent="1" source="N9_Ki6A4EYx4unU-PyfW-3" target="N9_Ki6A4EYx4unU-PyfW-6">
          <mxGeometry width="50" height="50" relative="1" as="geometry">
            <mxPoint x="334.14213562373106" y="145.85786437626894" as="sourcePoint" />
            <mxPoint x="385.85786437626894" y="94.14213562373106" as="targetPoint" />
          </mxGeometry>
        </mxCell>
        <mxCell id="N9_Ki6A4EYx4unU-PyfW-17" value="" style="endArrow=none;html=1;rounded=0;exitX=0;exitY=1;exitDx=0;exitDy=0;entryX=0.683;entryY=0.05;entryDx=0;entryDy=0;entryPerimeter=0;" edge="1" parent="1" source="N9_Ki6A4EYx4unU-PyfW-5" target="N9_Ki6A4EYx4unU-PyfW-8">
          <mxGeometry width="50" height="50" relative="1" as="geometry">
            <mxPoint x="324.14213562373106" y="164.14213562373106" as="sourcePoint" />
            <mxPoint x="350" y="210" as="targetPoint" />
          </mxGeometry>
        </mxCell>
        <mxCell id="N9_Ki6A4EYx4unU-PyfW-18" value="" style="endArrow=none;html=1;rounded=0;exitX=1;exitY=1;exitDx=0;exitDy=0;entryX=0.5;entryY=0;entryDx=0;entryDy=0;" edge="1" parent="1" source="N9_Ki6A4EYx4unU-PyfW-5" target="N9_Ki6A4EYx4unU-PyfW-7">
          <mxGeometry width="50" height="50" relative="1" as="geometry">
            <mxPoint x="255.85786437626894" y="244.14213562373106" as="sourcePoint" />
            <mxPoint x="240" y="288" as="targetPoint" />
          </mxGeometry>
        </mxCell>
        <mxCell id="N9_Ki6A4EYx4unU-PyfW-19" value="" style="endArrow=none;html=1;rounded=0;exitX=0;exitY=1;exitDx=0;exitDy=0;entryX=0.5;entryY=0;entryDx=0;entryDy=0;" edge="1" parent="1" source="N9_Ki6A4EYx4unU-PyfW-7" target="N9_Ki6A4EYx4unU-PyfW-10">
          <mxGeometry width="50" height="50" relative="1" as="geometry">
            <mxPoint x="265.85786437626894" y="254.14213562373106" as="sourcePoint" />
            <mxPoint x="250" y="298" as="targetPoint" />
          </mxGeometry>
        </mxCell>
        <mxCell id="N9_Ki6A4EYx4unU-PyfW-20" value="" style="endArrow=none;html=1;rounded=0;exitX=1;exitY=1;exitDx=0;exitDy=0;entryX=0.5;entryY=0;entryDx=0;entryDy=0;" edge="1" parent="1" source="N9_Ki6A4EYx4unU-PyfW-7" target="N9_Ki6A4EYx4unU-PyfW-11">
          <mxGeometry width="50" height="50" relative="1" as="geometry">
            <mxPoint x="275.85786437626894" y="264.14213562373106" as="sourcePoint" />
            <mxPoint x="260" y="308" as="targetPoint" />
          </mxGeometry>
        </mxCell>
      </root>
    </mxGraphModel>
  </diagram>
</mxfile>
